<svg width="35" height="30" viewBox="0 0 35 30" fill="none" xmlns="http://www.w3.org/2000/svg">
<path d="M0.35791 8.34418V18.8739C0.35791 20.0797 1.33542 21.0572 2.54124 21.0572H9.60472C10.1201 21.0572 10.6188 21.2395 11.0127 21.5718L19.3675 28.6212C20.7871 29.819 22.9588 28.8099 22.9588 26.9525V2.44886C22.9588 0.591495 20.7871 -0.417603 19.3675 0.780161L10.4028 8.34418M34.2593 14.7007C34.2593 11.9878 32.9452 9.55207 30.7924 7.81861C29.5792 6.8417 27.9812 7.87787 27.9812 9.43552V19.953C27.9812 21.4972 29.5554 22.5339 30.7664 21.5758C32.9346 19.8605 34.2593 17.4091 34.2593 14.7007Z" fill="white"/>
</svg>
