<svg width="31" height="31" viewBox="0 0 31 31" fill="none" xmlns="http://www.w3.org/2000/svg">
<path d="M25.6597 4.1875H10.5425C10.2919 4.1875 10.0516 4.28704 9.87439 4.46423C9.6972 4.64142 9.59766 4.88174 9.59766 5.13232V9.85645H4.87354C4.62295 9.85645 4.38263 9.95599 4.20544 10.1332C4.02825 10.3104 3.92871 10.5507 3.92871 10.8013V25.9185C3.92871 26.169 4.02825 26.4094 4.20544 26.5865C4.38263 26.7637 4.62295 26.8633 4.87354 26.8633H19.9907C20.2413 26.8633 20.4816 26.7637 20.6588 26.5865C20.836 26.4094 20.9355 26.169 20.9355 25.9185V21.1943H25.6597C25.9103 21.1943 26.1506 21.0948 26.3278 20.9176C26.5049 20.7404 26.6045 20.5001 26.6045 20.2495V5.13232C26.6045 4.88174 26.5049 4.64142 26.3278 4.46423C26.1506 4.28704 25.9103 4.1875 25.6597 4.1875ZM19.0459 24.9736H5.81836V11.7461H19.0459V24.9736ZM24.7148 19.3047H20.9355V10.8013C20.9355 10.5507 20.836 10.3104 20.6588 10.1332C20.4816 9.95599 20.2413 9.85645 19.9907 9.85645H11.4873V6.07715H24.7148V19.3047Z" fill="black"/>
</svg>
