<svg width="105" height="94" viewBox="0 0 105 94" fill="none" xmlns="http://www.w3.org/2000/svg">
<path fill-rule="evenodd" clip-rule="evenodd" d="M62.3812 6.18036C57.8581 -1.65778 46.5504 -1.65778 42.0274 6.18036L1.95568 75.6214C-2.5674 83.4595 3.08645 93.2572 12.1326 93.2572H92.276C101.322 93.2572 106.976 83.4595 102.453 75.6214L62.3812 6.18036ZM45.416 34.1038C43.9327 34.1038 42.7677 35.3747 42.8956 36.8532L45.1283 62.6537C45.2415 63.9621 46.3361 64.9665 47.6487 64.9665H55.7874C57.1167 64.9665 58.2193 63.9371 58.3112 62.6103L60.0973 36.8098C60.1986 35.3466 59.0395 34.1038 57.5736 34.1038H45.416ZM45.8269 79.663C44.2035 79.663 43.0003 78.1548 43.3601 76.571L44.8809 69.8759C45.1427 68.7235 46.1666 67.9058 47.3478 67.9058H56.0367C57.2593 67.9058 58.307 68.7806 58.5257 69.9841L59.7424 76.6791C60.0247 78.2328 58.8318 79.663 57.2534 79.663L45.8269 79.663Z" fill="#E7000F"/>
</svg>
